<svg width="25" height="25" viewBox="0 0 25 25" fill="none" xmlns="http://www.w3.org/2000/svg">
<path d="M18.5113 0H6.4879C2.72823 0 0 2.72903 0 6.48871V18.5113C0 22.271 2.72823 25 6.4879 25H18.5113C22.271 25 25 22.271 25 18.5113V6.48871C25 2.72903 22.271 0 18.5113 0ZM23.3871 18.5113C23.3871 21.3823 21.3823 23.3871 18.5113 23.3871H6.4879C3.61774 23.3871 1.6129 21.3823 1.6129 18.5113V6.48871C1.6129 3.61774 3.61774 1.6129 6.4879 1.6129H18.5113C21.3823 1.6129 23.3871 3.61774 23.3871 6.48871V18.5113Z" fill="white"/>
<path d="M11.8267 13.3027C11.5041 12.8785 11.042 12.5785 10.4428 12.4027C10.9081 12.172 11.2549 11.8696 11.4847 11.4954C11.7146 11.1212 11.8299 10.722 11.8299 10.2978C11.8299 9.84217 11.7001 9.40588 11.4412 8.98814C11.1823 8.5704 10.8226 8.26153 10.3654 8.06072C9.90812 7.85991 9.29844 7.7583 8.54038 7.7583H4.8186V17.6809H8.60167C9.23393 17.6809 9.76699 17.6261 10.2025 17.5156C10.638 17.4043 11.0001 17.2414 11.2888 17.0244C11.5775 16.8083 11.8202 16.5002 12.0162 16.1011C12.2122 15.7011 12.3105 15.2696 12.3105 14.8051C12.3105 14.2269 12.1492 13.7269 11.8267 13.3027ZM6.13151 11.9277V8.93008H8.11457C8.82747 8.93008 9.3307 8.97604 9.62425 9.06798C9.9178 9.16072 10.1428 9.33169 10.3009 9.5825C10.4589 9.83411 10.538 10.1236 10.538 10.4527C10.538 10.8002 10.4533 11.0889 10.2839 11.3188C10.1146 11.5486 9.86296 11.7139 9.52909 11.8131C9.27667 11.8898 8.85893 11.9285 8.27747 11.9285H6.13151V11.9277ZM10.7549 15.6406C10.6234 15.8825 10.4565 16.0656 10.2541 16.193C10.0509 16.3188 9.79844 16.4091 9.49602 16.4631C9.32505 16.4946 9.02667 16.5115 8.60247 16.5115H6.13151V16.5107V13.0994H8.42586C9.05812 13.0994 9.54118 13.1543 9.87747 13.2656C10.2138 13.3752 10.4767 13.568 10.6662 13.8406C10.8557 14.1131 10.9509 14.4349 10.9509 14.8051C10.9509 15.1212 10.8855 15.3986 10.7549 15.6406Z" fill="white"/>
<path d="M20.1822 14.0757C20.1822 12.8886 19.8774 11.9685 19.2685 11.3136C18.6588 10.6572 17.8741 10.3306 16.9129 10.3306C15.9201 10.3306 15.1137 10.6644 14.4903 11.3322C13.8677 12.0007 13.5564 12.9386 13.5564 14.1483C13.5564 15.3169 13.8645 16.2249 14.4798 16.8733C15.0967 17.5201 15.9298 17.8435 16.9822 17.8435C17.8161 17.8435 18.5016 17.6402 19.0395 17.2346C19.5766 16.8281 19.9435 16.2572 20.1419 15.5217L18.883 15.3677C18.6983 15.8814 18.4483 16.2564 18.1306 16.491C17.8153 16.7257 17.4346 16.8427 16.9879 16.8427C16.3879 16.8427 15.887 16.633 15.4846 16.2136C15.0838 15.7935 14.8612 15.1886 14.8153 14.3999H20.1758C20.1806 14.2556 20.1822 14.1475 20.1822 14.0757ZM14.883 13.3967V13.3959C14.9225 12.7685 15.1346 12.2685 15.5145 11.8935C15.8967 11.5193 16.3677 11.3314 16.9258 11.3314C17.5443 11.3314 18.0475 11.5669 18.4354 12.0362C18.687 12.3386 18.8411 12.7919 18.8959 13.3967H14.883Z" fill="white"/>
<path d="M18.9059 8.64502H14.8349L14.8245 9.64663H18.9132L18.9059 8.64502Z" fill="white"/>
</svg>
