<svg width="14" height="25" viewBox="0 0 14 25" fill="none" xmlns="http://www.w3.org/2000/svg">
<path d="M8.53176 24.6719H4.63461C3.98367 24.6719 3.45414 24.1401 3.45414 23.4865V14.6595H1.18047C0.529521 14.6595 0 14.1276 0 13.4741V9.69171C0 9.03804 0.529521 8.5063 1.18047 8.5063H3.45414V6.61222C3.45414 4.73418 4.04141 3.13636 5.15225 1.99179C6.26811 0.841993 7.82752 0.234375 9.66191 0.234375L12.6341 0.239222C13.2839 0.240341 13.8125 0.772077 13.8125 1.42463V4.93647C13.8125 5.59014 13.2832 6.12188 12.6324 6.12188L10.6313 6.12262C10.021 6.12262 9.86559 6.24549 9.83235 6.28315C9.77758 6.34561 9.71241 6.52217 9.71241 7.00972V8.50611H12.482C12.6905 8.50611 12.8925 8.55776 13.0661 8.65508C13.4406 8.8652 13.6734 9.26252 13.6734 9.69189L13.6719 13.4743C13.6719 14.1276 13.1424 14.6593 12.4915 14.6593H9.71241V23.4865C9.71241 24.1401 9.18271 24.6719 8.53176 24.6719ZM4.88081 23.2392H8.28556V14.0181C8.28556 13.5817 8.63926 13.2267 9.07372 13.2267H12.2453L12.2466 9.93893H9.07353C8.63907 9.93893 8.28556 9.58394 8.28556 9.14748V7.00972C8.28556 6.45002 8.34219 5.8135 8.76291 5.33509C9.27127 4.75674 10.0724 4.68999 10.6309 4.68999L12.3858 4.68925V1.67148L9.6608 1.667C6.71278 1.667 4.88081 3.56201 4.88081 6.61222V9.14748C4.88081 9.58376 4.5273 9.93893 4.09284 9.93893H1.42666V13.2267H4.09284C4.5273 13.2267 4.88081 13.5817 4.88081 14.0181V23.2392ZM12.6313 1.67185H12.6315H12.6313Z" fill="white"/>
</svg>
