<svg width="44" height="44" viewBox="0 0 44 44" fill="none" xmlns="http://www.w3.org/2000/svg">
<g clip-path="url(#clip0)">
<path d="M44.0006 4.3692C44.0033 3.77165 43.7655 3.19813 43.3406 2.77788L41.2228 0.660028C40.8045 0.237168 40.2343 -0.000505958 39.6395 8.08734e-07H39.6322C39.041 0.000362785 38.4748 0.238181 38.0607 0.660028L28.4541 10.2666H9.53427V2.20002C9.53427 0.984938 8.54926 8.08734e-07 7.33425 8.08734e-07H5.86759C2.62907 0.00362057 0.00459632 2.62809 0.000976562 5.86662V38.3171C0.184498 41.531 2.86138 44.0331 6.08029 43.9996H41.8007C43.0157 43.9996 44.0006 43.0147 44.0006 41.7997V12.4666C44.0006 11.2516 43.0157 10.2666 41.8007 10.2666H39.014L43.3407 5.93996C43.7616 5.52557 43.9993 4.95994 44.0006 4.3692ZM26.2395 18.3332C26.0842 18.3544 25.9282 18.2998 25.82 18.1865C25.7108 18.0781 25.6569 17.9259 25.6733 17.773L25.9513 15.2797C25.9629 15.2275 25.9776 15.1761 25.9953 15.1257L28.8838 18.0142C28.8362 18.0245 28.7929 18.048 28.743 18.0538L26.2395 18.3332ZM30.0813 17.1357L26.8723 13.9259L34.8656 5.93264L38.0731 9.13946L30.0813 17.1357ZM35.8996 4.89493L36.9871 3.80813L40.1932 7.01495L39.1064 8.10247L35.8996 4.89493ZM1.46763 5.86662C1.47009 3.43762 3.43859 1.46904 5.86759 1.46666H7.33425C7.73923 1.46666 8.06761 1.79497 8.06761 2.19995V31.533C8.06761 31.938 7.7393 32.2663 7.33425 32.2663H5.86759C4.18289 32.2658 2.57962 32.991 1.46763 34.2565V5.86662ZM41.8007 11.7332C42.2056 11.7332 42.534 12.0616 42.534 12.4666V41.7997C42.534 42.2047 42.2057 42.5331 41.8007 42.5331H6.08029C3.6594 42.5737 1.63132 40.7101 1.46763 38.2944V38.133C1.47009 35.704 3.43859 33.7355 5.86759 33.7331H7.33425C8.54926 33.7331 9.53419 32.7481 9.53419 31.5331V11.7332H26.9874L25.322 13.3986C24.8571 13.8567 24.5646 14.4613 24.4941 15.1102L24.2162 17.6086C24.1933 17.8523 24.2164 18.098 24.2844 18.3331H11.7342C11.3292 18.3331 11.0008 18.6615 11.0008 19.0665C11.0008 19.4715 11.3292 19.7998 11.7342 19.7998H13.9342V39.5997C13.9342 40.0047 14.2625 40.333 14.6676 40.333C15.0726 40.333 15.401 40.0047 15.401 39.5997V29.3331H23.4675V35.1997H18.3342C17.9292 35.1997 17.6009 35.528 17.6009 35.933C17.6009 36.338 17.9292 36.6664 18.3342 36.6664H33.0007C33.8108 36.6664 34.4674 36.0097 34.4674 35.1997V24.1998C34.4674 23.7949 34.1391 23.4665 33.7341 23.4665C33.3291 23.4665 33.0007 23.7948 33.0007 24.1998V27.8664H15.4009V19.7999H26.1867C26.2582 19.8 26.3297 19.7961 26.4008 19.7881L28.9066 19.5029C29.5426 19.4307 30.1362 19.1481 30.5932 18.6999L37.5511 11.7333H41.8007V11.7332ZM33.0007 29.3331V35.1997H24.9341V29.3331H33.0007ZM42.3066 4.90007L41.2301 5.97731L38.024 2.77122L39.1013 1.69398C39.2422 1.54933 39.4354 1.46738 39.6374 1.46666C39.843 1.46716 40.0397 1.55013 40.1836 1.69694L42.3045 3.81335C42.4519 3.95857 42.5347 4.15708 42.534 4.36406C42.5334 4.56604 42.4514 4.75926 42.3066 4.90007Z" fill="#AE816A"/>
</g>
<defs>
<clipPath id="clip0">
<rect width="44" height="44" fill="white"/>
</clipPath>
</defs>
</svg>
