<svg width="47" height="47" viewBox="0 0 47 47" fill="none" xmlns="http://www.w3.org/2000/svg">
<g clip-path="url(#clip0)">
<path d="M5.49622 4.69948H22.7296C23.1622 4.69948 23.5129 4.34877 23.5129 3.91615C23.5129 3.48352 23.1622 3.13281 22.7296 3.13281H5.49622C5.0636 3.13281 4.71289 3.48352 4.71289 3.91615C4.71289 4.34877 5.0636 4.69948 5.49622 4.69948Z" fill="#AE816A"/>
<path d="M45.9993 22.8036C47.4442 21.1938 47.3106 18.7175 45.7008 17.2725C44.091 15.8275 41.6147 15.9612 40.1697 17.5709C36.2264 21.9615 38.0281 19.9554 31.347 27.3963V17.2333H38.397C39.6949 17.2333 40.747 16.1812 40.747 14.8833V5.48333C40.7431 2.45658 38.2904 0.00388405 35.2637 0H5.49701C2.47008 0.00345343 0.0171253 2.4564 0.0136719 5.48333V44.65C0.0136719 45.9479 1.0658 47 2.36367 47H28.997C30.2949 47 31.347 45.9479 31.347 44.65V39.1205L45.9993 22.8036ZM41.3361 18.6175C41.8929 17.9776 42.7514 17.6875 43.5823 17.8584C44.4131 18.0293 45.0874 18.6347 45.3465 19.4424C45.6056 20.2501 45.4093 21.1348 44.8329 21.7571L42.2165 24.675C40.0569 22.7363 40.8661 23.4624 38.719 21.5338L41.3361 18.6175ZM39.1803 5.48333V14.8833C39.1803 15.316 38.8296 15.6667 38.397 15.6667H31.347V5.48333C31.347 3.32022 33.1006 1.56667 35.2637 1.56667C37.4268 1.56667 39.1803 3.32022 39.1803 5.48333ZM28.997 45.4333H2.36367C1.93105 45.4333 1.58034 45.0826 1.58034 44.65V5.48333C1.58293 3.32129 3.33496 1.56926 5.49701 1.56667H31.4332C30.3762 2.59567 29.7801 4.00822 29.7803 5.48333V29.14L26.6219 32.6564C26.5001 31.4628 25.4968 30.5538 24.297 30.55V18.8H26.6C27.1119 18.8098 27.5966 18.5701 27.8995 18.1573C28.2024 17.7446 28.2857 17.2103 28.1228 16.725L26.1888 11.2416C25.9556 10.6023 25.3457 10.1786 24.6652 10.1833H19.2281C18.5476 10.1788 17.9378 10.6024 17.7045 11.2416L15.7696 16.725C15.6067 17.2105 15.6901 17.7449 15.9932 18.1577C16.2963 18.5704 16.7812 18.81 17.2932 18.8H19.597V30.55C18.2991 30.55 17.247 31.6021 17.247 32.9V34.4667H14.897V31.8989C15.3793 31.6205 15.6775 31.1069 15.6803 30.55V29.1557C16.2978 28.6058 16.5781 27.7702 16.4171 26.9592C16.256 26.1482 15.6777 25.483 14.897 25.2108V20.3667C14.897 18.6362 13.4942 17.2333 11.7637 17.2333H7.84701C6.11651 17.2333 4.71367 18.6362 4.71367 20.3667V25.2108C3.9326 25.4826 3.35393 26.1478 3.19285 26.959C3.03177 27.7702 3.31239 28.606 3.93034 29.1557V30.55C3.93202 31.1072 4.23055 31.6213 4.71367 31.8989V34.4667C4.28105 34.4667 3.93034 34.8174 3.93034 35.25C3.93034 35.6826 4.28105 36.0333 4.71367 36.0333H24.3628L22.0661 42.3H9.41367C8.98105 42.3 8.63034 42.6507 8.63034 43.0833C8.63034 43.516 8.98105 43.8667 9.41367 43.8667H22.7303C23.0331 43.8663 23.3082 43.6903 23.4353 43.4155L29.7803 40.2821V44.65C29.7803 45.0826 29.4296 45.4333 28.997 45.4333ZM28.8537 38.992L24.0816 41.3483L25.913 36.3514L28.8537 38.992ZM17.2932 17.2333C17.2149 17.2545 17.0238 17.86 19.2281 11.75L24.7114 11.7633L26.6 17.2333H17.2932ZM21.1637 18.8H22.7303V30.55H21.1637V18.8ZM24.297 32.1167C24.7296 32.1167 25.0803 32.4674 25.0803 32.9V34.3758C24.9636 34.5058 25.6686 34.4667 18.8137 34.4667V32.9C18.8137 32.4674 19.1644 32.1167 19.597 32.1167H24.297ZM14.1137 26.6333C14.5463 26.6333 14.897 26.984 14.897 27.4167C14.897 27.8493 14.5463 28.2 14.1137 28.2C13.6811 28.2 13.3303 27.8493 13.3303 27.4167C13.3303 26.984 13.6811 26.6333 14.1137 26.6333ZM13.3303 25.2108C12.6669 25.4478 12.1448 25.9699 11.9078 26.6333H7.70209C7.46528 25.9701 6.94347 25.448 6.28034 25.2108V20.3667C6.28034 19.5014 6.98176 18.8 7.84701 18.8H11.7637C12.6289 18.8 13.3303 19.5014 13.3303 20.3667V25.2108ZM5.49701 26.6333C5.92963 26.6333 6.28034 26.984 6.28034 27.4167C6.28034 27.8493 5.92963 28.2 5.49701 28.2C5.06438 28.2 4.71367 27.8493 4.71367 27.4167C4.71367 26.984 5.06438 26.6333 5.49701 26.6333ZM7.70209 28.2H11.9078C12.2386 29.1356 13.1214 29.7626 14.1137 29.7667V30.55H5.49701V29.7667C6.48903 29.7622 7.37142 29.1353 7.70209 28.2ZM6.28034 32.1167H7.67781L7.20781 34.4667H6.28034V32.1167ZM9.27189 32.1167H10.3411L10.8111 34.4667H8.80189L9.27189 32.1167ZM11.9352 32.1167H13.3303V34.4667H12.4052L11.9352 32.1167ZM30.1791 38.0763L26.6823 34.9367L37.6724 22.6971L41.17 25.8375L30.1791 38.0763Z" fill="#AE816A"/>
</g>
<defs>
<clipPath id="clip0">
<rect width="47" height="47" fill="white"/>
</clipPath>
</defs>
</svg>
