<svg width="197" height="108" viewBox="0 0 197 108" fill="none" xmlns="http://www.w3.org/2000/svg">
<path d="M125.959 6L102.446 32.5461V6H100.724V49.282H102.446V35.1769L108.515 28.2987L125.727 49.2107L125.797 49.282H128.052L109.697 26.9754L128.322 6H125.959Z" fill="white"/>
<path d="M159.379 47.5146H136.121V49.2817H159.379V47.5146Z" fill="white"/>
<path d="M158.808 6H136.121V7.7671H158.808V6Z" fill="white"/>
<path d="M157.58 26.7617H136.121V28.5288H157.58V26.7617Z" fill="white"/>
<path d="M194.861 6L180.939 26.9674L167.085 6.09509L167.024 6H164.885L180.081 28.7979V49.282H181.803V28.7979L197 6H194.861Z" fill="white"/>
<path d="M196.598 64.0999H56.2306C55.7827 48.5764 43.366 36.0879 28.1384 36.0879C12.6252 36.0879 0 49.044 0 64.9637C0 80.8834 12.6252 93.8395 28.1384 93.8395C43.3737 93.8395 55.7827 81.343 56.2306 65.8274H196.598V64.0999ZM28.1384 92.1199C13.5519 92.1199 1.67564 79.9404 1.67564 64.9637C1.67564 49.9869 13.5441 37.8074 28.1384 37.8074C42.7328 37.8074 54.6013 49.9869 54.6013 64.9637C54.6013 79.9404 42.725 92.1199 28.1384 92.1199Z" fill="white"/>
<path d="M123.287 82.7462C123.766 81.8111 124.445 81.0979 125.318 80.5987C126.191 80.0995 127.187 79.8459 128.306 79.8459C129.658 79.8459 130.801 80.2104 131.743 80.9315C132.677 81.6606 133.31 82.5719 133.627 83.6971V75.5352H134.044V92.0888H133.627V88.3724C133.31 89.5055 132.677 90.4327 131.743 91.1617C130.808 91.8828 129.658 92.2473 128.306 92.2473C127.187 92.2473 126.191 92.0017 125.318 91.4945C124.445 90.9874 123.774 90.2742 123.287 89.347C122.808 88.412 122.569 87.3105 122.569 86.0427C122.561 84.7827 122.801 83.6812 123.287 82.7462ZM132.932 83.0156C132.476 82.1439 131.843 81.4625 131.032 80.9791C130.229 80.4878 129.31 80.2501 128.299 80.2501C127.225 80.2501 126.291 80.4799 125.496 80.9474C124.7 81.407 124.09 82.0805 123.65 82.9443C123.21 83.8159 122.994 84.854 122.994 86.0427C122.994 87.2392 123.21 88.2694 123.65 89.141C124.083 90.0127 124.7 90.6783 125.496 91.1458C126.291 91.6054 127.225 91.8352 128.299 91.8352C129.318 91.8352 130.229 91.5896 131.032 91.1062C131.835 90.6228 132.468 89.9414 132.932 89.0697C133.387 88.198 133.619 87.1837 133.619 86.0347C133.619 84.9016 133.387 83.8952 132.932 83.0156Z" fill="white"/>
<path d="M146.198 90.8206C147.101 90.1312 147.642 89.1962 147.835 87.9996H148.267C148.067 89.2675 147.488 90.2897 146.538 91.0742C145.588 91.8587 144.36 92.247 142.862 92.247C141.773 92.247 140.8 92.0013 139.943 91.51C139.086 91.0187 138.414 90.3055 137.928 89.3626C137.441 88.4275 137.194 87.3181 137.194 86.0502C137.194 84.7824 137.434 83.6809 137.928 82.7379C138.422 81.7949 139.086 81.0818 139.943 80.5905C140.8 80.0992 141.773 79.8535 142.862 79.8535C144.013 79.8535 144.993 80.1071 145.804 80.6063C146.615 81.1055 147.233 81.7553 147.65 82.5398C148.067 83.3243 148.267 84.1643 148.267 85.0439C148.267 85.5748 148.26 85.9789 148.244 86.2483H137.627C137.642 87.4845 137.889 88.5226 138.376 89.3546C138.862 90.1946 139.503 90.8127 140.283 91.2247C141.071 91.6368 141.928 91.8428 142.854 91.8428C144.183 91.8428 145.295 91.5021 146.198 90.8206ZM140.291 80.8678C139.503 81.2799 138.87 81.9059 138.384 82.7379C137.897 83.5779 137.642 84.608 137.634 85.8442H147.881C147.951 84.608 147.766 83.57 147.302 82.7379C146.847 81.9059 146.221 81.2799 145.426 80.8678C144.63 80.4558 143.781 80.2497 142.862 80.2497C141.936 80.2576 141.078 80.4637 140.291 80.8678Z" fill="white"/>
<path d="M152.097 91.4389C151.302 90.9001 150.846 90.0918 150.715 88.9983H151.155C151.24 89.8937 151.634 90.591 152.321 91.0903C153.008 91.5895 153.989 91.8431 155.256 91.8431C155.896 91.8431 156.46 91.7163 156.947 91.4627C157.433 91.2091 157.804 90.8684 158.066 90.4405C158.329 90.0205 158.46 89.553 158.46 89.0617C158.46 88.5228 158.313 88.087 158.012 87.7542C157.711 87.4214 157.34 87.1599 156.9 86.9855C156.46 86.8033 155.85 86.6131 155.078 86.4071C154.221 86.1852 153.526 85.9633 152.993 85.7335C152.46 85.5116 152.012 85.163 151.642 84.7034C151.271 84.2358 151.086 83.6257 151.086 82.8649C151.086 82.3261 151.248 81.8269 151.564 81.3673C151.881 80.9077 152.321 80.5352 152.885 80.2579C153.441 79.9805 154.074 79.8379 154.769 79.8379C155.958 79.8379 156.916 80.1469 157.649 80.7571C158.375 81.3673 158.769 82.2231 158.831 83.3087H158.391C158.344 82.4133 158.02 81.6763 157.402 81.1058C156.784 80.5352 155.912 80.242 154.777 80.242C154.167 80.242 153.611 80.3609 153.117 80.5986C152.622 80.8363 152.236 81.1533 151.951 81.5574C151.665 81.9616 151.526 82.3895 151.526 82.857C151.526 83.5147 151.696 84.0456 152.028 84.4498C152.36 84.846 152.769 85.1471 153.263 85.3452C153.758 85.5433 154.398 85.7494 155.217 85.9712C156.043 86.209 156.7 86.4308 157.171 86.621C157.642 86.8191 158.043 87.1123 158.383 87.5085C158.715 87.9047 158.885 88.4198 158.885 89.0617C158.885 89.656 158.723 90.1948 158.406 90.6782C158.089 91.1616 157.649 91.542 157.101 91.8193C156.545 92.0966 155.927 92.2314 155.248 92.2314C153.935 92.2472 152.885 91.9778 152.097 91.4389Z" fill="white"/>
<path d="M162.398 80.0127V92.0971H161.958V80.0127H162.398Z" fill="white"/>
<path d="M174.73 80.9313C175.665 81.6445 176.298 82.5558 176.614 83.6572V80.0121H177.031V92.5403C177.031 93.6576 176.792 94.6323 176.313 95.4643C175.834 96.2884 175.201 96.9224 174.406 97.3503C173.611 97.7861 172.753 98.0001 171.827 98.0001C170.398 98.0001 169.225 97.6435 168.282 96.9382C167.348 96.225 166.699 95.2741 166.352 94.0617H166.784C167.116 95.1473 167.711 96.0111 168.56 96.645C169.41 97.279 170.499 97.5959 171.819 97.5959C172.723 97.5959 173.533 97.382 174.259 96.9699C174.985 96.5499 175.564 95.9635 175.981 95.2028C176.406 94.4421 176.614 93.5546 176.614 92.5403V88.4276C176.298 89.5449 175.665 90.4641 174.73 91.1773C173.796 91.8905 172.645 92.255 171.294 92.255C170.174 92.255 169.178 92.0094 168.306 91.5022C167.433 90.9951 166.761 90.2819 166.275 89.3547C165.796 88.4197 165.557 87.3182 165.557 86.0504C165.557 84.7825 165.796 83.681 166.275 82.746C166.754 81.8109 167.433 81.0977 168.306 80.5985C169.178 80.0993 170.174 79.8457 171.294 79.8457C172.645 79.8536 173.788 80.2102 174.73 80.9313ZM175.927 83.0154C175.472 82.1437 174.838 81.4622 174.028 80.9789C173.224 80.4876 172.306 80.2498 171.294 80.2498C170.221 80.2498 169.286 80.4796 168.491 80.9472C167.696 81.4068 167.086 82.0803 166.645 82.9441C166.205 83.8157 165.989 84.8538 165.989 86.0424C165.989 87.239 166.205 88.2691 166.645 89.1408C167.078 90.0125 167.696 90.6781 168.491 91.1456C169.286 91.6052 170.221 91.835 171.294 91.835C172.313 91.835 173.224 91.5894 174.028 91.106C174.831 90.6226 175.464 89.9411 175.927 89.0695C176.383 88.1978 176.614 87.1835 176.614 86.0345C176.614 84.9013 176.383 83.895 175.927 83.0154Z" fill="white"/>
<path d="M189.193 81.0665C190.081 81.9461 190.521 83.2774 190.521 85.0524V92.097H190.104V85.0048C190.104 83.4279 189.718 82.2234 188.946 81.3914C188.174 80.5673 187.124 80.1473 185.788 80.1473C184.39 80.1473 183.271 80.6148 182.429 81.542C181.587 82.477 181.163 83.8479 181.163 85.6705V92.0891H180.722V80.0126H181.163V83.1902C181.441 82.0729 181.989 81.2171 182.823 80.6307C183.657 80.0443 184.637 79.7432 185.788 79.7432C187.17 79.7432 188.305 80.179 189.193 81.0665Z" fill="white"/>
<path d="M161.773 76.082C161.665 75.9711 161.611 75.8284 161.611 75.6462C161.611 75.4719 161.665 75.3213 161.773 75.2104C161.881 75.0994 162.012 75.0439 162.175 75.0439C162.337 75.0439 162.468 75.0994 162.576 75.2104C162.684 75.3213 162.738 75.4719 162.738 75.6462C162.738 75.8284 162.684 75.9711 162.576 76.082C162.468 76.193 162.329 76.2484 162.175 76.2484C162.02 76.2484 161.889 76.193 161.773 76.082Z" fill="white"/>
</svg>
