<svg width="20" height="22" viewBox="0 0 20 22" fill="none" xmlns="http://www.w3.org/2000/svg">
<path d="M12.4879 16.1863C14.2625 13.243 16.5054 9.10508 16.5054 6.97813C16.5054 3.39023 13.5879 0.472656 9.99998 0.472656C6.41209 0.472656 3.49451 3.39023 3.49451 6.97813C3.49451 9.10508 5.73748 13.243 7.51208 16.1863C5.40662 16.3453 0.615601 16.9168 0.615601 18.8117C0.615601 20.6766 5.47966 21.5273 10.0043 21.5273C14.5246 21.5273 19.3929 20.6766 19.3929 18.8117C19.3886 16.9168 14.5933 16.3453 12.4879 16.1863ZM4.39255 6.97813C4.39255 3.88438 6.91052 1.36641 9.99998 1.36641C13.0937 1.36641 15.6117 3.88438 15.6117 6.97813C15.6117 9.68086 11.3062 16.4613 9.99998 18.4551C8.69373 16.4613 4.39255 9.68086 4.39255 6.97813ZM9.99998 20.6293C4.50427 20.6293 1.50935 19.4262 1.50935 18.8074C1.50935 18.3305 3.48591 17.3035 8.0406 17.0414C8.89568 18.4207 9.54451 19.3961 9.63044 19.5121C9.74646 19.6668 10.0859 19.8516 10.3738 19.5121C10.464 19.4047 11.1086 18.4207 11.9636 17.0414C16.5183 17.3035 18.4949 18.3262 18.4949 18.8074C18.4906 19.4305 15.4957 20.6293 9.99998 20.6293Z" fill="white"/>
<path d="M12.8316 6.97812C12.8316 5.41406 11.564 4.14648 9.99998 4.14648C8.43591 4.14648 7.16833 5.41406 7.16833 6.97812C7.16833 8.54219 8.43591 9.80977 9.99998 9.80977C11.564 9.80977 12.8316 8.54219 12.8316 6.97812ZM8.06208 6.97812C8.06208 5.9082 8.93005 5.04023 9.99998 5.04023C11.0699 5.04023 11.9379 5.9082 11.9379 6.97812C11.9379 8.04805 11.0699 8.91602 9.99998 8.91602C8.93005 8.91602 8.06208 8.04805 8.06208 6.97812Z" fill="white"/>
</svg>
