<svg width="133" height="60" viewBox="0 0 133 60" fill="none" xmlns="http://www.w3.org/2000/svg">
<path d="M85.0383 0L69.164 17.3127V0H68.0015V28.2274H69.164V19.0284L73.2616 14.5426L84.8819 28.1809L84.9288 28.2274H86.4511L74.0592 13.6796L86.6336 0H85.0383Z" fill="white"/>
<path d="M107.601 27.0747H91.8989V28.2272H107.601V27.0747Z" fill="white"/>
<path d="M107.215 0H91.8989V1.15245H107.215V0Z" fill="white"/>
<path d="M106.386 13.54H91.8989V14.6925H106.386V13.54Z" fill="white"/>
<path d="M131.556 0L122.156 13.6744L112.804 0.0620155L112.762 0H111.318L121.578 14.8682V28.2274H122.74V14.8682L133 0H131.556Z" fill="white"/>
<path d="M132.729 37.8913H37.9628C37.6604 27.7673 29.2775 19.6226 18.997 19.6226C8.52364 19.6226 0 28.0722 0 38.4546C0 48.837 8.52364 57.2866 18.997 57.2866C29.2827 57.2866 37.6604 49.1368 37.9628 39.0179H132.729V37.8913ZM18.997 56.1652C9.14922 56.1652 1.13127 48.222 1.13127 38.4546C1.13127 28.6872 9.14401 20.744 18.997 20.744C28.85 20.744 36.8628 28.6872 36.8628 38.4546C36.8628 48.222 28.8448 56.1652 18.997 56.1652Z" fill="white"/>
<path d="M83.2345 50.0515C83.5577 49.4417 84.0164 48.9765 84.6055 48.651C85.1946 48.3254 85.8671 48.16 86.6231 48.16C87.5354 48.16 88.3069 48.3977 88.9429 48.868C89.5737 49.3435 90.0012 49.9378 90.215 50.6716V45.3486H90.4965V56.1445H90.215V53.7207C90.0012 54.4597 89.5737 55.0644 88.9429 55.5398C88.3121 56.0101 87.5354 56.2479 86.6231 56.2479C85.8671 56.2479 85.1946 56.0877 84.6055 55.7569C84.0164 55.4262 83.5629 54.961 83.2345 54.3564C82.9112 53.7466 82.7496 53.0282 82.7496 52.2013C82.7444 51.3796 82.906 50.6613 83.2345 50.0515ZM89.7458 50.2272C89.4382 49.6587 89.0107 49.2143 88.4633 48.899C87.9212 48.5786 87.3008 48.4236 86.6178 48.4236C85.8932 48.4236 85.2624 48.5734 84.7254 48.8783C84.1885 49.1781 83.7766 49.6174 83.4795 50.1807C83.1823 50.7491 83.0364 51.4262 83.0364 52.2013C83.0364 52.9817 83.1823 53.6535 83.4795 54.222C83.7714 54.7905 84.1885 55.2246 84.7254 55.5295C85.2624 55.8293 85.8932 55.9791 86.6178 55.9791C87.306 55.9791 87.9212 55.8189 88.4633 55.5037C89.0055 55.1884 89.433 54.744 89.7458 54.1755C90.0534 53.607 90.2098 52.9455 90.2098 52.1962C90.2098 51.4572 90.0534 50.8008 89.7458 50.2272Z" fill="white"/>
<path d="M98.7022 55.3175C99.3121 54.8679 99.677 54.2581 99.8074 53.4777H100.099C99.9637 54.3046 99.5728 54.9712 98.9315 55.4829C98.2903 55.9945 97.4614 56.2477 96.45 56.2477C95.715 56.2477 95.0581 56.0875 94.4794 55.7671C93.9008 55.4467 93.4472 54.9816 93.1188 54.3666C92.7904 53.7568 92.6235 53.0333 92.6235 52.2064C92.6235 51.3795 92.7851 50.6612 93.1188 50.0462C93.4524 49.4312 93.9008 48.9661 94.4794 48.6457C95.0581 48.3252 95.715 48.165 96.45 48.165C97.2268 48.165 97.8889 48.3304 98.4363 48.656C98.9837 48.9816 99.4007 49.4053 99.6822 49.917C99.9638 50.4286 100.099 50.9764 100.099 51.5501C100.099 51.8963 100.094 52.1599 100.084 52.3356H92.9155C92.9259 53.1418 93.0927 53.8188 93.4212 54.3614C93.7496 54.9092 94.1823 55.3123 94.7088 55.5811C95.2406 55.8498 95.8192 55.9842 96.4448 55.9842C97.3415 55.9842 98.0922 55.7619 98.7022 55.3175ZM94.714 48.8265C94.1823 49.0953 93.7548 49.5035 93.4264 50.0462C93.0979 50.594 92.9259 51.2658 92.9207 52.072H99.8386C99.8855 51.2658 99.7604 50.5888 99.4476 50.0462C99.1401 49.5035 98.7178 49.0953 98.1808 48.8265C97.6439 48.5578 97.0704 48.4234 96.45 48.4234C95.8244 48.4286 95.2458 48.563 94.714 48.8265Z" fill="white"/>
<path d="M102.685 55.7207C102.148 55.3693 101.841 54.8421 101.752 54.1289H102.049C102.106 54.7129 102.372 55.1677 102.836 55.4933C103.3 55.8189 103.962 55.9842 104.817 55.9842C105.25 55.9842 105.631 55.9016 105.959 55.7362C106.287 55.5708 106.538 55.3486 106.715 55.0695C106.892 54.7956 106.981 54.4907 106.981 54.1703C106.981 53.8189 106.882 53.5346 106.678 53.3176C106.475 53.1005 106.225 52.93 105.928 52.8163C105.631 52.6974 105.219 52.5734 104.697 52.439C104.119 52.2943 103.65 52.1496 103.29 51.9997C102.93 51.855 102.628 51.6277 102.378 51.3279C102.127 51.023 102.002 50.6251 102.002 50.1289C102.002 49.7775 102.112 49.4519 102.325 49.1522C102.539 48.8525 102.836 48.6096 103.217 48.4287C103.592 48.2478 104.02 48.1548 104.489 48.1548C105.292 48.1548 105.938 48.3563 106.433 48.7543C106.923 49.1522 107.189 49.7103 107.231 50.4183H106.934C106.903 49.8344 106.684 49.3538 106.267 48.9817C105.85 48.6096 105.26 48.4184 104.494 48.4184C104.082 48.4184 103.707 48.4959 103.373 48.6509C103.04 48.8059 102.779 49.0127 102.586 49.2762C102.393 49.5398 102.299 49.8189 102.299 50.1238C102.299 50.5527 102.414 50.899 102.638 51.1625C102.862 51.4209 103.139 51.6173 103.472 51.7465C103.806 51.8757 104.239 52.0101 104.791 52.1548C105.349 52.3098 105.792 52.4545 106.11 52.5786C106.428 52.7078 106.699 52.899 106.929 53.1574C107.153 53.4158 107.268 53.7517 107.268 54.1703C107.268 54.5579 107.158 54.9093 106.944 55.2245C106.731 55.5398 106.433 55.7879 106.063 55.9687C105.688 56.1496 105.271 56.2375 104.812 56.2375C103.926 56.2478 103.217 56.0721 102.685 55.7207Z" fill="white"/>
<path d="M109.639 48.2686V56.1497H109.342V48.2686H109.639Z" fill="white"/>
<path d="M117.965 48.8682C118.596 49.3333 119.023 49.9276 119.237 50.6459V48.2687H119.519V56.4392C119.519 57.1679 119.357 57.8036 119.034 58.3462C118.711 58.8837 118.283 59.2971 117.746 59.5762C117.209 59.8604 116.63 59.9999 116.005 59.9999C115.04 59.9999 114.248 59.7674 113.612 59.3074C112.981 58.8423 112.543 58.2222 112.309 57.4315H112.601C112.825 58.1395 113.226 58.7028 113.8 59.1162C114.373 59.5297 115.108 59.7364 116 59.7364C116.61 59.7364 117.157 59.5968 117.647 59.3281C118.137 59.0542 118.528 58.6718 118.81 58.1757C119.096 57.6795 119.237 57.1007 119.237 56.4392V53.7571C119.023 54.4857 118.596 55.0852 117.965 55.5503C117.334 56.0155 116.557 56.2532 115.645 56.2532C114.889 56.2532 114.217 56.093 113.628 55.7622C113.039 55.4315 112.585 54.9664 112.257 54.3617C111.933 53.7519 111.772 53.0335 111.772 52.2067C111.772 51.3798 111.933 50.6614 112.257 50.0516C112.58 49.4418 113.039 48.9767 113.628 48.6511C114.217 48.3255 114.889 48.1602 115.645 48.1602C116.557 48.1653 117.329 48.3979 117.965 48.8682ZM118.773 50.2273C118.466 49.6589 118.038 49.2144 117.491 48.8992C116.948 48.5788 116.328 48.4237 115.645 48.4237C114.921 48.4237 114.29 48.5736 113.753 48.8785C113.216 49.1782 112.804 49.6175 112.507 50.1808C112.21 50.7493 112.064 51.4263 112.064 52.2015C112.064 52.9819 112.21 53.6537 112.507 54.2222C112.799 54.7906 113.216 55.2248 113.753 55.5297C114.29 55.8294 114.921 55.9793 115.645 55.9793C116.333 55.9793 116.948 55.8191 117.491 55.5038C118.033 55.1886 118.46 54.7441 118.773 54.1757C119.081 53.6072 119.237 52.9457 119.237 52.1963C119.237 51.4573 119.081 50.801 118.773 50.2273Z" fill="white"/>
<path d="M127.729 48.9558C128.329 49.5295 128.626 50.3977 128.626 51.5553V56.1496H128.345V51.5243C128.345 50.4959 128.084 49.7103 127.563 49.1677C127.041 48.6302 126.332 48.3563 125.43 48.3563C124.487 48.3563 123.731 48.6613 123.163 49.2659C122.594 49.8757 122.308 50.7698 122.308 51.9584V56.1445H122.01V48.2685H122.308V50.3408C122.495 49.6122 122.865 49.054 123.428 48.6716C123.992 48.2892 124.654 48.0928 125.43 48.0928C126.364 48.0928 127.13 48.377 127.729 48.9558Z" fill="white"/>
<path d="M109.217 45.7053C109.144 45.633 109.108 45.54 109.108 45.4211C109.108 45.3074 109.144 45.2092 109.217 45.1368C109.29 45.0645 109.379 45.0283 109.488 45.0283C109.598 45.0283 109.686 45.0645 109.759 45.1368C109.832 45.2092 109.869 45.3074 109.869 45.4211C109.869 45.54 109.832 45.633 109.759 45.7053C109.686 45.7777 109.592 45.8139 109.488 45.8139C109.384 45.8139 109.295 45.7777 109.217 45.7053Z" fill="white"/>
</svg>
