<svg width="25" height="25" viewBox="0 0 25 25" fill="none" xmlns="http://www.w3.org/2000/svg">
<g clip-path="url(#clip0)">
<path d="M17.8224 0.234375H6.61499C2.96742 0.234375 0 3.2018 0 6.84937V18.057C0 21.7044 2.96742 24.6718 6.61499 24.6718H17.8226C21.47 24.6718 24.4374 21.7044 24.4374 18.057V6.84937C24.4374 3.2018 21.47 0.234375 17.8224 0.234375V0.234375ZM23.0048 18.057C23.0048 20.9144 20.6801 23.2392 17.8224 23.2392H6.61499C3.75738 23.2392 1.43263 20.9144 1.43263 18.057V6.84937C1.43263 3.99176 3.75738 1.667 6.61499 1.667H17.8226C20.6801 1.667 23.0048 3.99176 23.0048 6.84937V18.057Z" fill="white"/>
<path d="M12.2188 5.771C8.53431 5.771 5.53687 8.76844 5.53687 12.4529C5.53687 16.1374 8.53431 19.1348 12.2188 19.1348C15.9033 19.1348 18.9007 16.1374 18.9007 12.4529C18.9007 8.76844 15.9033 5.771 12.2188 5.771ZM12.2188 17.7022C9.32445 17.7022 6.96949 15.3474 6.96949 12.4529C6.96949 9.55858 9.32445 7.20362 12.2188 7.20362C15.1133 7.20362 17.4681 9.55858 17.4681 12.4529C17.4681 15.3474 15.1133 17.7022 12.2188 17.7022Z" fill="white"/>
<path d="M19.0604 3.39795C17.9715 3.39795 17.0859 4.28374 17.0859 5.37238C17.0859 6.46121 17.9715 7.347 19.0604 7.347C20.1492 7.347 21.035 6.46121 21.035 5.37238C21.035 4.28355 20.1492 3.39795 19.0604 3.39795ZM19.0604 5.91418C18.7617 5.91418 18.5186 5.67106 18.5186 5.37238C18.5186 5.07351 18.7617 4.83058 19.0604 4.83058C19.3592 4.83058 19.6024 5.07351 19.6024 5.37238C19.6024 5.67106 19.3592 5.91418 19.0604 5.91418Z" fill="white"/>
</g>
<defs>
<clipPath id="clip0">
<rect width="24.4375" height="24.4375" fill="white" transform="translate(0 0.234375)"/>
</clipPath>
</defs>
</svg>
