<svg width="19" height="20" viewBox="0 0 19 20" fill="none" xmlns="http://www.w3.org/2000/svg">
<path d="M3.85026 13.2947C5.73138 15.6527 7.99584 17.5093 10.5804 18.823C11.5644 19.3121 12.8804 19.8923 14.3466 19.9917C14.4375 19.9959 14.5244 20 14.6153 20C15.5994 20 16.3897 19.6436 17.0339 18.9101C17.0379 18.9059 17.0458 18.8976 17.0497 18.8893C17.2789 18.5993 17.5398 18.3382 17.8124 18.0605C17.9982 17.874 18.1879 17.6792 18.3697 17.4803C19.2114 16.5603 19.2114 15.3916 18.3618 14.5006L15.9866 12.0099C15.5836 11.5707 15.1014 11.3386 14.5956 11.3386C14.0897 11.3386 13.6036 11.5707 13.1887 12.0058L11.7739 13.4894C11.6435 13.4107 11.5091 13.3402 11.3826 13.2739C11.2246 13.191 11.0783 13.1123 10.9479 13.0253C9.6596 12.1674 8.48983 11.0485 7.37144 9.61044C6.80631 8.86034 6.42692 8.23042 6.16215 7.58806C6.53363 7.23581 6.8814 6.86697 7.21731 6.50642C7.33587 6.37795 7.45838 6.24948 7.58089 6.12101C8.0077 5.67344 8.23691 5.15541 8.23691 4.62909C8.23691 4.10278 8.01165 3.58475 7.58089 3.13717L6.40321 1.9022C6.26489 1.75715 6.13448 1.61625 6.00012 1.4712C5.73929 1.18939 5.4666 0.899295 5.19787 0.63821C4.79082 0.219644 4.31264 0 3.80679 0C3.3049 0 2.82276 0.219644 2.39991 0.642354L0.921883 2.19229C0.38442 2.75591 0.0801211 3.4397 0.0168902 4.23125C-0.0581965 5.22172 0.115689 6.27435 0.566209 7.54662C1.2578 9.51513 2.30111 11.3427 3.85026 13.2947ZM0.981162 4.31828C1.02858 3.76709 1.23013 3.30709 1.60952 2.90924L3.07964 1.36759C3.30885 1.13552 3.56177 1.01533 3.80679 1.01533C4.04786 1.01533 4.29288 1.13552 4.51814 1.37588C4.78292 1.63282 5.03189 1.9022 5.30062 2.18815C5.43499 2.3332 5.57331 2.47824 5.71162 2.62743L6.8893 3.86241C7.13432 4.11935 7.26078 4.38044 7.26078 4.63738C7.26078 4.89432 7.13432 5.15541 6.8893 5.41235C6.76679 5.54082 6.64428 5.67344 6.52177 5.80191C6.15424 6.19146 5.81042 6.5603 5.43104 6.91256C5.42313 6.92085 5.41918 6.92499 5.41128 6.93328C5.08327 7.27725 5.13464 7.60464 5.21368 7.85329C5.21763 7.86573 5.22159 7.87402 5.22554 7.88645C5.52984 8.65313 5.95269 9.38251 6.61267 10.2528C7.79824 11.7862 9.04706 12.9755 10.4223 13.8914C10.5923 14.0075 10.774 14.0986 10.944 14.1898C11.1021 14.2727 11.2483 14.3514 11.3787 14.4385C11.3945 14.4467 11.4064 14.455 11.4222 14.4633C11.5526 14.5338 11.679 14.5669 11.8055 14.5669C12.1217 14.5669 12.3272 14.3556 12.3943 14.2851L13.8724 12.7352C14.1016 12.4948 14.3505 12.3663 14.5956 12.3663C14.8959 12.3663 15.1409 12.5611 15.2951 12.7352L17.6781 15.23C18.1523 15.7273 18.1484 16.2661 17.6662 16.7924C17.5002 16.9789 17.3264 17.1571 17.1406 17.3436C16.864 17.6254 16.5755 17.9155 16.3147 18.2429C15.8602 18.7567 15.3188 18.9971 14.6193 18.9971C14.5521 18.9971 14.481 18.993 14.4138 18.9888C13.1175 18.9018 11.9122 18.3713 11.0072 17.9196C8.54911 16.6722 6.39136 14.9026 4.60113 12.6564C3.12706 10.7957 2.13513 9.06341 1.47911 7.2068C1.07206 6.06714 0.917931 5.15126 0.981162 4.31828Z" fill="white"/>
</svg>
