<svg width="61" height="61" viewBox="0 0 61 61" fill="none" xmlns="http://www.w3.org/2000/svg">
<g clip-path="url(#clip0)">
<path d="M60.6277 58.8307L42.0672 40.2701C45.9224 35.9898 48.2917 30.3462 48.2917 24.1458C48.2916 10.8319 37.4598 0 24.1459 0C10.8319 0 0 10.8319 0 24.1459C0 37.4598 10.8319 48.2917 24.1459 48.2917C30.3463 48.2917 35.9898 45.9224 40.2702 42.0672L58.8307 60.6277C59.0789 60.8759 59.4041 61 59.7292 61C60.0544 61 60.3795 60.8759 60.6278 60.6277C61.1241 60.1312 61.1241 59.327 60.6277 58.8307ZM24.1459 45.75C12.2343 45.75 2.54175 36.0586 2.54175 24.1459C2.54175 12.2331 12.2343 2.54163 24.1459 2.54163C36.0574 2.54163 45.75 12.233 45.75 24.1459C45.75 36.0587 36.0574 45.75 24.1459 45.75Z" fill="white"/>
</g>
<defs>
<clipPath id="clip0">
<rect width="61" height="61" fill="white"/>
</clipPath>
</defs>
</svg>
