<svg width="36" height="48" viewBox="0 0 36 48" fill="none" xmlns="http://www.w3.org/2000/svg">
<path d="M33.8128 26.3256L26.7247 15.2141C27.729 14.6863 28.416 13.6331 28.416 12.422C28.416 11.0963 27.5931 9.95994 26.4315 9.49475L28.5788 1.98756C28.6714 1.66368 28.5811 1.31514 28.343 1.07693C26.9146 -0.351367 24.5906 -0.351367 23.1622 1.07693C22.8205 1.41861 22.3663 1.60675 21.8831 1.60675C21.3999 1.60675 20.9457 1.41861 20.6019 1.07471L20.5973 1.07016C19.174 -0.353314 16.854 -0.357301 15.425 1.06173L15.3984 1.08824C14.693 1.78858 13.5474 1.78654 12.8447 1.0837L12.8379 1.07693C11.4095 -0.351367 9.08554 -0.351367 7.65715 1.07693C7.41885 1.31532 7.32863 1.66414 7.42145 1.98821L9.57335 9.49299C8.40931 9.95697 7.58417 11.0946 7.58417 12.4221C7.58417 13.6332 8.27106 14.6864 9.27543 15.2142L2.18726 26.3256C-0.554922 30.6242 -0.728684 35.8599 1.72244 40.3308C4.17356 44.8018 8.68099 47.4711 13.7799 47.4711H22.2201C27.3189 47.4711 31.8263 44.8018 34.2775 40.3308C36.7286 35.8599 36.555 30.6242 33.8128 26.3256ZM11.5266 2.38821L11.5333 2.39498C12.9568 3.81837 15.2767 3.82226 16.7057 2.40342L16.7323 2.3769C17.4375 1.67657 18.5831 1.67861 19.2881 2.38358L19.2926 2.38812C20.721 3.81642 23.045 3.81642 24.4734 2.38812C25.0546 1.80694 25.9361 1.70466 26.623 2.0813L24.5671 9.26943H11.4386L9.37734 2.08121C10.0642 1.70466 10.9455 1.80712 11.5266 2.38821ZM32.6514 39.4394C30.5309 43.3074 26.6313 45.6168 22.2202 45.6168H13.78C9.3688 45.6168 5.46926 43.3075 3.3487 39.4394C1.22813 35.5714 1.37844 31.0419 3.75074 27.3229L11.245 15.5746H13.8276C14.3397 15.5746 14.7548 15.1595 14.7548 14.6473C14.7548 14.1352 14.3397 13.7201 13.8276 13.7201H10.7367C10.0209 13.7201 9.43863 13.1378 9.43863 12.422C9.43863 11.7062 10.0209 11.1239 10.7367 11.1239H10.7398H25.2633C25.9791 11.1239 26.5614 11.7062 26.5614 12.422C26.5614 13.1378 25.9791 13.7201 25.2633 13.7201H22.1726C21.6605 13.7201 21.2454 14.1352 21.2454 14.6473C21.2454 15.1595 21.6605 15.5746 22.1726 15.5746H24.755L32.2494 27.3229C34.6217 31.0418 34.772 35.5713 32.6514 39.4394Z" fill="#AE816A"/>
<path d="M19.6353 30.2815C19.4027 30.1992 19.1652 30.1137 18.9278 30.0247V25.8224C19.5565 26.0073 19.9763 26.3073 19.9941 26.3203C20.402 26.6258 20.9807 26.5448 21.2889 26.138C21.5982 25.7298 21.518 25.1483 21.1098 24.8389C21.0554 24.7977 20.1932 24.1577 18.9278 23.9154V22.9927C18.9278 22.4805 18.5127 22.0654 18.0006 22.0654C17.4885 22.0654 17.0734 22.4805 17.0734 22.9927V23.9088C16.9163 23.9389 16.7571 23.977 16.5958 24.0255C15.2908 24.4176 14.3154 25.5336 14.0501 26.938C13.808 28.2204 14.2188 29.4572 15.1223 30.1658C15.6126 30.5503 16.2253 30.9014 17.0734 31.2744V36.6519C16.3432 36.6057 15.8547 36.4396 15.0404 35.9069C14.612 35.6264 14.0372 35.7466 13.7569 36.1752C13.4765 36.6038 13.5967 37.1784 14.0252 37.4588C15.2126 38.2355 16.0166 38.4555 17.0734 38.5076V39.4664C17.0734 39.9785 17.4885 40.3936 18.0006 40.3936C18.5127 40.3936 18.9278 39.9785 18.9278 39.4664V38.4112C20.9134 37.9763 22.0747 36.3195 22.3352 34.7695C22.6758 32.7432 21.6161 30.9815 19.6353 30.2815ZM16.2668 28.7065C15.9104 28.4269 15.7592 27.8811 15.8724 27.282C15.9764 26.731 16.3471 26.0667 17.0734 25.8209V29.2167C16.7685 29.0541 16.4934 28.8842 16.2668 28.7065ZM20.5063 34.462C20.3728 35.2561 19.8368 36.0984 18.9277 36.4706V31.9978C18.958 32.0085 18.9866 32.019 19.0172 32.0299C20.6796 32.6174 20.5774 34.04 20.5063 34.462Z" fill="#AE816A"/>
</svg>
