<svg width="46" height="46" viewBox="0 0 46 46" fill="none" xmlns="http://www.w3.org/2000/svg">
<path d="M10.5418 23.4785C6.80432 23.4785 3.8335 26.4493 3.8335 30.1868C3.8335 33.9243 6.80432 36.8952 10.5418 36.8952C14.2793 36.8952 17.2502 33.9243 17.2502 30.1868C17.2502 26.4493 14.2793 23.4785 10.5418 23.4785ZM10.5418 34.9785C7.85852 34.9785 5.75013 32.8701 5.75013 30.1868C5.75013 27.5035 7.85852 25.3952 10.5418 25.3952C13.2251 25.3952 15.3335 27.5035 15.3335 30.1868C15.3334 32.8701 13.2251 34.9785 10.5418 34.9785Z" fill="#AE816A"/>
<path d="M10.5417 34.9795C4.69582 34.9795 0 39.6753 0 45.5211H1.91664C1.91664 40.7294 5.75001 36.8961 10.5416 36.8961C15.3332 36.8961 19.1666 40.7295 19.1666 45.5211H21.0832C21.0833 39.6753 16.3875 34.9795 10.5417 34.9795Z" fill="#AE816A"/>
<path d="M35.4586 23.4785C31.7211 23.4785 28.7502 26.4493 28.7502 30.1868C28.7502 33.9243 31.7211 36.8952 35.4586 36.8952C39.1961 36.8952 42.1669 33.9243 42.1669 30.1868C42.1669 26.4493 39.1961 23.4785 35.4586 23.4785ZM35.4586 34.9785C32.7753 34.9785 30.6669 32.8701 30.6669 30.1868C30.6669 27.5035 32.7752 25.3952 35.4586 25.3952C38.142 25.3952 40.2503 27.5035 40.2503 30.1868C40.2502 32.8701 38.1419 34.9785 35.4586 34.9785Z" fill="#AE816A"/>
<path d="M35.4585 34.9795C29.6126 34.9795 24.9167 39.6753 24.9167 45.5211H26.8334C26.8334 40.7294 30.6668 36.8961 35.4584 36.8961C40.2499 36.8961 44.0833 40.7295 44.0833 45.5211H46C46.0001 39.6753 41.3042 34.9795 35.4585 34.9795Z" fill="#AE816A"/>
<path d="M23.0003 0.479492C19.2628 0.479492 16.292 3.45032 16.292 7.18782C16.292 10.9253 19.2628 13.8962 23.0003 13.8962C26.7378 13.8962 29.7087 10.9253 29.7087 7.18782C29.7087 3.45032 26.7378 0.479492 23.0003 0.479492ZM23.0003 11.9795C20.317 11.9795 18.2086 9.87114 18.2086 7.18782C18.2086 4.50451 20.317 2.39613 23.0003 2.39613C25.6836 2.39613 27.792 4.50451 27.792 7.18782C27.792 9.87114 25.6836 11.9795 23.0003 11.9795Z" fill="#AE816A"/>
<path d="M23 11.9795C17.1541 11.9795 12.4583 16.6753 12.4583 22.5212H14.3749C14.3749 17.7295 18.2083 13.8962 22.9999 13.8962C27.7915 13.8962 31.6248 17.7296 31.6248 22.5212H33.5415C33.5416 16.6753 28.8457 11.9795 23 11.9795Z" fill="#AE816A"/>
</svg>
