<svg width="45" height="45" viewBox="0 0 45 45" fill="none" xmlns="http://www.w3.org/2000/svg">
<path d="M41.4844 1.40625H14.7656C14.2067 1.40792 13.6711 1.63069 13.2759 2.02592C12.8807 2.42114 12.6579 2.9567 12.6562 3.51562V11.25H2.10938C1.92289 11.25 1.74405 11.3241 1.61219 11.4559C1.48033 11.5878 1.40625 11.7666 1.40625 11.9531V40.0781C1.40625 40.2646 1.48033 40.4434 1.61219 40.5753C1.74405 40.7072 1.92289 40.7812 2.10938 40.7812H12.6562V41.4844C12.6579 42.0433 12.8807 42.5789 13.2759 42.9741C13.6711 43.3693 14.2067 43.5921 14.7656 43.5938H41.4844C42.0433 43.5921 42.5789 43.3693 42.9741 42.9741C43.3693 42.5789 43.5921 42.0433 43.5938 41.4844V3.51562C43.5921 2.9567 43.3693 2.42114 42.9741 2.02592C42.5789 1.63069 42.0433 1.40792 41.4844 1.40625ZM4.21875 39.375H2.8125V12.6562H4.21875V39.375ZM5.625 39.375V12.6562H21.0938V39.375H5.625ZM42.1875 41.4844C42.1875 41.6709 42.1134 41.8497 41.9816 41.9816C41.8497 42.1134 41.6709 42.1875 41.4844 42.1875H14.7656C14.5791 42.1875 14.4003 42.1134 14.2684 41.9816C14.1366 41.8497 14.0625 41.6709 14.0625 41.4844V40.7812H21.7969C21.9834 40.7812 22.1622 40.7072 22.2941 40.5753C22.4259 40.4434 22.5 40.2646 22.5 40.0781V11.9531C22.5 11.7666 22.4259 11.5878 22.2941 11.4559C22.1622 11.3241 21.9834 11.25 21.7969 11.25H14.0625V3.51562C14.0625 3.32914 14.1366 3.1503 14.2684 3.01844C14.4003 2.88658 14.5791 2.8125 14.7656 2.8125H41.4844C41.6709 2.8125 41.8497 2.88658 41.9816 3.01844C42.1134 3.1503 42.1875 3.32914 42.1875 3.51562V41.4844Z" fill="#AE816A"/>
<path d="M38.8068 28.2313C38.675 28.0994 38.4962 28.0254 38.3097 28.0254C38.1233 28.0254 37.9445 28.0994 37.8126 28.2313L32.3437 33.7002L29.8575 31.2146C29.7256 31.0828 29.5468 31.0087 29.3604 31.0087C29.1739 31.0087 28.9951 31.0828 28.8632 31.2146L26.8748 33.2031C26.743 33.3349 26.6689 33.5137 26.6689 33.7002C26.6689 33.8866 26.743 34.0654 26.8748 34.1973L31.8466 39.1691C31.9785 39.3009 32.1573 39.3749 32.3437 39.3749C32.5302 39.3749 32.709 39.3009 32.8408 39.1691L40.796 31.2146C40.8614 31.1493 40.9132 31.0718 40.9486 30.9864C40.984 30.901 41.0022 30.8096 41.0022 30.7172C41.0022 30.6248 40.984 30.5333 40.9486 30.4479C40.9132 30.3625 40.8614 30.285 40.796 30.2197L38.8068 28.2313ZM32.3437 37.6777L28.3661 33.7002L29.3604 32.7059L31.8466 35.1915C31.9785 35.3233 32.1573 35.3974 32.3437 35.3974C32.5302 35.3974 32.709 35.3233 32.8408 35.1915L38.3097 29.7226L39.3047 30.7175L32.3437 37.6777Z" fill="#AE816A"/>
<path d="M39.375 9.14062V6.32812C39.375 6.14164 39.3009 5.9628 39.1691 5.83094C39.0372 5.69908 38.8584 5.625 38.6719 5.625H17.5781C17.3916 5.625 17.2128 5.69908 17.0809 5.83094C16.9491 5.9628 16.875 6.14164 16.875 6.32812V9.14062C16.875 9.32711 16.9491 9.50595 17.0809 9.63781C17.2128 9.76967 17.3916 9.84375 17.5781 9.84375H38.6719C38.8584 9.84375 39.0372 9.76967 39.1691 9.63781C39.3009 9.50595 39.375 9.32711 39.375 9.14062ZM37.9688 8.4375H18.2812V7.03125H37.9688V8.4375Z" fill="#AE816A"/>
<path d="M26.9375 12.6562H35.375V14.0625H26.9375V12.6562Z" fill="#AE816A"/>
<path d="M26.9375 16.875H35.375V18.2812H26.9375V16.875Z" fill="#AE816A"/>
<path d="M26.9375 21.0938H35.375V22.5H26.9375V21.0938Z" fill="#AE816A"/>
<path d="M26.9375 25.3125H35.375V26.7188H26.9375V25.3125Z" fill="#AE816A"/>
<path d="M13.3594 22.5C12.6641 22.5 11.9843 22.7062 11.4062 23.0925C10.8281 23.4788 10.3775 24.0279 10.1114 24.6703C9.84527 25.3127 9.77565 26.0195 9.9113 26.7015C10.047 27.3835 10.3818 28.0099 10.8735 28.5016C11.3651 28.9932 11.9915 29.3281 12.6735 29.4637C13.3555 29.5994 14.0623 29.5297 14.7047 29.2636C15.3471 28.9976 15.8962 28.547 16.2825 27.9688C16.6688 27.3907 16.875 26.711 16.875 26.0156C16.8739 25.0836 16.5031 24.19 15.8441 23.5309C15.185 22.8719 14.2914 22.5011 13.3594 22.5ZM13.3594 28.125C12.9422 28.125 12.5344 28.0013 12.1875 27.7695C11.8406 27.5377 11.5702 27.2083 11.4106 26.8229C11.2509 26.4374 11.2091 26.0133 11.2905 25.6041C11.3719 25.1949 11.5728 24.8191 11.8678 24.5241C12.1628 24.2291 12.5387 24.0282 12.9479 23.9468C13.357 23.8654 13.7812 23.9072 14.1666 24.0668C14.552 24.2265 14.8815 24.4968 15.1133 24.8437C15.345 25.1906 15.4687 25.5984 15.4687 26.0156C15.4687 26.5751 15.2465 27.1116 14.8509 27.5072C14.4553 27.9028 13.9188 28.125 13.3594 28.125Z" fill="#AE816A"/>
<path d="M18.9844 16.875C18.4254 16.8733 17.8899 16.6506 17.4947 16.2553C17.0994 15.8601 16.8767 15.3246 16.875 14.7656C16.875 14.5791 16.8009 14.4003 16.6691 14.2684C16.5372 14.1366 16.3584 14.0625 16.1719 14.0625H10.5469C10.3604 14.0625 10.1816 14.1366 10.0497 14.2684C9.91783 14.4003 9.84375 14.5791 9.84375 14.7656C9.84208 15.3246 9.61931 15.8601 9.22408 16.2553C8.82886 16.6506 8.2933 16.8733 7.73438 16.875C7.54789 16.875 7.36905 16.9491 7.23719 17.0809C7.10533 17.2128 7.03125 17.3916 7.03125 17.5781V34.4531C7.03125 34.6396 7.10533 34.8184 7.23719 34.9503C7.36905 35.0822 7.54789 35.1562 7.73438 35.1562C8.2933 35.1579 8.82886 35.3807 9.22408 35.7759C9.61931 36.1711 9.84208 36.7067 9.84375 37.2656C9.84375 37.4521 9.91783 37.6309 10.0497 37.7628C10.1816 37.8947 10.3604 37.9688 10.5469 37.9688H16.1719C16.3584 37.9688 16.5372 37.8947 16.6691 37.7628C16.8009 37.6309 16.875 37.4521 16.875 37.2656C16.8767 36.7067 17.0994 36.1711 17.4947 35.7759C17.8899 35.3807 18.4254 35.1579 18.9844 35.1562C19.1709 35.1562 19.3497 35.0822 19.4816 34.9503C19.6134 34.8184 19.6875 34.6396 19.6875 34.4531V17.5781C19.6875 17.3916 19.6134 17.2128 19.4816 17.0809C19.3497 16.9491 19.1709 16.875 18.9844 16.875ZM18.2812 33.8203C17.606 33.959 16.9863 34.2927 16.4988 34.7801C16.0114 35.2675 15.6777 35.8873 15.5391 36.5625H11.1797C11.041 35.8873 10.7073 35.2675 10.2199 34.7801C9.73248 34.2927 9.11275 33.959 8.4375 33.8203V18.2109C9.11275 18.0723 9.73248 17.7386 10.2199 17.2512C10.7073 16.7637 11.041 16.144 11.1797 15.4688H15.5391C15.6777 16.144 16.0114 16.7637 16.4988 17.2512C16.9863 17.7386 17.606 18.0723 18.2812 18.2109V33.8203Z" fill="#AE816A"/>
</svg>
