<svg width="47" height="47" viewBox="0 0 47 47" fill="none" xmlns="http://www.w3.org/2000/svg">
<path d="M6.60938 30.1094C6.17364 30.1094 5.74769 30.2386 5.38539 30.4807C5.02308 30.7228 4.7407 31.0668 4.57395 31.4694C4.4072 31.872 4.36358 32.3149 4.44858 32.7423C4.53359 33.1697 4.74342 33.5622 5.05153 33.8703C5.35964 34.1785 5.7522 34.3883 6.17957 34.4733C6.60693 34.5583 7.04991 34.5147 7.45248 34.3479C7.85504 34.1812 8.19912 33.8988 8.44121 33.5365C8.68329 33.1742 8.8125 32.7482 8.8125 32.3125C8.81184 31.7284 8.57952 31.1684 8.1665 30.7554C7.75347 30.3424 7.19348 30.11 6.60938 30.1094ZM6.60938 33.0469C6.46413 33.0469 6.32215 33.0038 6.20138 32.9231C6.08061 32.8424 5.98649 32.7277 5.9309 32.5935C5.87532 32.4593 5.86078 32.3117 5.88911 32.1692C5.91745 32.0268 5.98739 31.8959 6.09009 31.7932C6.1928 31.6905 6.32365 31.6206 6.46611 31.5922C6.60856 31.5639 6.75622 31.5784 6.89041 31.634C7.0246 31.6896 7.13929 31.7837 7.21999 31.9045C7.30068 32.0253 7.34375 32.1673 7.34375 32.3125C7.34353 32.5072 7.26609 32.6939 7.12842 32.8315C6.99074 32.9692 6.80408 33.0467 6.60938 33.0469Z" fill="#AE816A"/>
<path d="M34.5156 30.1094C34.0799 30.1094 33.6539 30.2386 33.2916 30.4807C32.9293 30.7228 32.647 31.0668 32.4802 31.4694C32.3135 31.872 32.2698 32.3149 32.3548 32.7423C32.4398 33.1697 32.6497 33.5622 32.9578 33.8703C33.2659 34.1785 33.6585 34.3883 34.0858 34.4733C34.5132 34.5583 34.9562 34.5147 35.3587 34.3479C35.7613 34.1812 36.1054 33.8988 36.3475 33.5365C36.5895 33.1742 36.7188 32.7482 36.7188 32.3125C36.7181 31.7284 36.4858 31.1684 36.0728 30.7554C35.6597 30.3424 35.0997 30.11 34.5156 30.1094ZM34.5156 33.0469C34.3704 33.0469 34.2284 33.0038 34.1076 32.9231C33.9869 32.8424 33.8927 32.7277 33.8372 32.5935C33.7816 32.4593 33.767 32.3117 33.7954 32.1692C33.8237 32.0268 33.8936 31.8959 33.9963 31.7932C34.0991 31.6905 34.2299 31.6206 34.3724 31.5922C34.5148 31.5639 34.6625 31.5784 34.7967 31.634C34.9309 31.6896 35.0455 31.7837 35.1262 31.9045C35.2069 32.0253 35.25 32.1673 35.25 32.3125C35.2498 32.5072 35.1723 32.6939 35.0347 32.8315C34.897 32.9692 34.7103 33.0467 34.5156 33.0469Z" fill="#AE816A"/>
<path d="M39.6565 32.3125C39.6565 31.6301 39.5206 30.9545 39.2567 30.3251C38.9929 29.6957 38.6064 29.1251 38.1197 28.6467C37.6331 28.1683 37.056 27.7915 36.4222 27.5384C35.7885 27.2854 35.1106 27.161 34.4283 27.1726C31.6421 27.2192 29.3752 29.5574 29.3752 32.385V34.8521C27.3635 34.3045 24.4295 33.7813 20.5627 33.7813C16.696 33.7813 13.7619 34.3045 11.7502 34.8521V32.3125C11.7502 31.6206 11.6106 30.9359 11.3396 30.2993C11.0686 29.6627 10.672 29.0873 10.1733 28.6077C9.67468 28.128 9.08435 27.754 8.4377 27.5079C7.79105 27.2619 7.10139 27.1489 6.41003 27.1758C5.11806 27.2302 3.89365 27.7678 2.97928 28.6822C2.06491 29.5966 1.52727 30.821 1.47283 32.113C1.42381 33.3826 1.84647 34.6254 2.65934 35.6019C3.47221 36.5785 4.61777 37.2195 5.87522 37.4016V40.3906C5.8761 41.1694 6.18586 41.9161 6.73656 42.4668C7.28726 43.0175 8.03392 43.3273 8.81272 43.3281V45.5313C8.81272 45.726 8.89009 45.9128 9.02781 46.0505C9.16554 46.1883 9.35233 46.2656 9.5471 46.2656H11.7502C11.8866 46.2656 12.0203 46.2277 12.1363 46.156C12.2523 46.0843 12.346 45.9817 12.407 45.8597L13.6728 43.3281H27.4526L28.7184 45.8597C28.7794 45.9817 28.8732 46.0843 28.9892 46.156C29.1052 46.2277 29.2388 46.2656 29.3752 46.2656H31.5783C31.7731 46.2656 31.9599 46.1883 32.0976 46.0505C32.2353 45.9128 32.3127 45.726 32.3127 45.5313V43.3281C33.0915 43.3273 33.8382 43.0175 34.3889 42.4668C34.9396 41.9161 35.2493 41.1694 35.2502 40.3906V37.4008C36.4731 37.2227 37.591 36.6106 38.4 35.6764C39.209 34.7423 39.6549 33.5483 39.6565 32.3125ZM11.2964 44.7969H10.2815V43.3281H12.0308L11.2964 44.7969ZM30.844 44.7969H29.8291L29.0947 43.3281H30.844V44.7969ZM34.5158 35.9844C34.3211 35.9844 34.1343 36.0618 33.9966 36.1995C33.8588 36.3372 33.7815 36.524 33.7815 36.7188V40.3906C33.781 40.78 33.6261 41.1534 33.3508 41.4287C33.0754 41.704 32.7021 41.8589 32.3127 41.8594H8.81272C8.42333 41.8589 8.05001 41.704 7.77467 41.4287C7.49932 41.1534 7.34443 40.78 7.34397 40.3906V36.7188C7.34397 36.524 7.2666 36.3372 7.12888 36.1995C6.99116 36.0618 6.80436 35.9844 6.6096 35.9844C6.11529 35.9844 5.62607 35.8846 5.17127 35.691C4.71646 35.4974 4.30543 35.2139 3.96281 34.8576C3.62019 34.5013 3.35304 34.0795 3.17737 33.6175C3.0017 33.1554 2.92112 32.6627 2.94047 32.1688C2.97939 31.2464 3.36326 30.3722 4.01608 29.7194C4.6689 29.0666 5.54307 28.6827 6.46547 28.6438C6.9594 28.6244 7.45216 28.7049 7.91421 28.8805C8.37626 29.0561 8.7981 29.3233 9.15443 29.6658C9.51077 30.0084 9.79426 30.4194 9.98793 30.8742C10.1816 31.329 10.2814 31.8182 10.2815 32.3125V35.3051C9.12382 35.709 8.51548 36.0433 8.45269 36.0787L9.17119 37.3597C9.2091 37.3386 13.0531 35.25 20.5627 35.25C28.0723 35.25 31.9163 37.3386 31.9527 37.3589L32.6727 36.0787C32.61 36.0433 32.0016 35.7086 30.844 35.3051V32.385C30.844 30.3539 32.4629 28.6744 34.4528 28.6412C34.9376 28.6328 35.4193 28.7205 35.87 28.8993C36.3208 29.078 36.7316 29.3443 37.0789 29.6827C37.4262 30.0211 37.703 30.4249 37.8934 30.8709C38.0838 31.3169 38.184 31.7961 38.1881 32.281C38.1923 32.7659 38.1004 33.2468 37.9177 33.6959C37.735 34.1451 37.4651 34.5536 37.1237 34.8979C36.7823 35.2423 36.3761 35.5155 35.9285 35.702C35.4809 35.8885 35.0007 35.9845 34.5158 35.9844Z" fill="#AE816A"/>
<path d="M7.34375 22.0312C7.34421 21.6419 7.4991 21.2685 7.77445 20.9932C8.04979 20.7179 8.4231 20.563 8.8125 20.5625H32.3125C32.7019 20.563 33.0752 20.7179 33.3506 20.9932C33.6259 21.2685 33.7808 21.6419 33.7812 22.0312V25.7031H35.25V22.0312C35.2491 21.2524 34.9394 20.5058 34.3887 19.9551C33.838 19.4044 33.0913 19.0946 32.3125 19.0938H8.8125C8.03369 19.0946 7.28704 19.4044 6.73634 19.9551C6.18564 20.5058 5.87587 21.2524 5.875 22.0312V25.7031H7.34375V22.0312Z" fill="#AE816A"/>
<path d="M16.1562 23.5H17.625V24.9688H16.1562V23.5Z" fill="#AE816A"/>
<path d="M19.8281 27.1719H21.2969V28.6406H19.8281V27.1719Z" fill="#AE816A"/>
<path d="M12.4844 27.1719H13.9531V28.6406H12.4844V27.1719Z" fill="#AE816A"/>
<path d="M16.1562 30.8438H17.625V32.3125H16.1562V30.8438Z" fill="#AE816A"/>
<path d="M23.5 23.5H24.9688V24.9688H23.5V23.5Z" fill="#AE816A"/>
<path d="M27.1719 27.1719H28.6406V28.6406H27.1719V27.1719Z" fill="#AE816A"/>
<path d="M23.5 30.8438H24.9688V32.3125H23.5V30.8438Z" fill="#AE816A"/>
<path d="M42.5937 0.734375H22.0312C21.2524 0.73525 20.5058 1.04502 19.9551 1.59571C19.4044 2.14641 19.0946 2.89307 19.0938 3.67188V4.40625H20.5625V3.67188C20.563 3.28248 20.7179 2.90917 20.9932 2.63382C21.2685 2.35848 21.6419 2.20359 22.0312 2.20312H31.5781V17.625H33.0469V2.20312H42.5937C42.9831 2.20359 43.3565 2.35848 43.6318 2.63382C43.9071 2.90917 44.062 3.28248 44.0625 3.67188V40.3906C44.062 40.78 43.9071 41.1533 43.6318 41.4287C43.3565 41.704 42.9831 41.8589 42.5937 41.8594H35.9844V43.3281H37.7337L38.9994 45.8597C39.0604 45.9817 39.1542 46.0843 39.2702 46.1559C39.3862 46.2276 39.5199 46.2656 39.6562 46.2656H41.8594C42.0541 46.2656 42.2409 46.1883 42.3787 46.0505C42.5164 45.9128 42.5937 45.726 42.5937 45.5312V43.3281C43.3726 43.3273 44.1192 43.0175 44.6699 42.4668C45.2206 41.9161 45.5304 41.1694 45.5312 40.3906V3.67188C45.5304 2.89307 45.2206 2.14641 44.6699 1.59571C44.1192 1.04502 43.3726 0.73525 42.5937 0.734375ZM41.125 44.7969H40.1101L39.3757 43.3281H41.125V44.7969Z" fill="#AE816A"/>
<path d="M6.60959 16.1562H13.219V17.625H14.6877V16.1562H21.2971C21.3987 16.1562 21.4992 16.1352 21.5922 16.0943C21.6852 16.0535 21.7687 15.9939 21.8375 15.9191C21.9063 15.8443 21.9588 15.7561 21.9918 15.66C22.0247 15.5639 22.0373 15.4621 22.0289 15.3608L21.2945 6.54833C21.2792 6.36477 21.1955 6.19367 21.0599 6.06895C20.9244 5.94423 20.7469 5.87501 20.5627 5.875H14.6877V4.40625H13.219V5.875H7.34397C7.15977 5.87501 6.9823 5.94423 6.84675 6.06895C6.7112 6.19367 6.62747 6.36477 6.61216 6.54833L5.87779 15.3608C5.86934 15.4621 5.88199 15.5639 5.91493 15.66C5.94788 15.7561 6.0004 15.8443 6.06918 15.9191C6.13795 15.9939 6.22149 16.0535 6.31451 16.0943C6.40753 16.1352 6.50801 16.1562 6.60959 16.1562ZM8.01968 7.34375H19.887L20.499 14.6875H7.40767L8.01968 7.34375Z" fill="#AE816A"/>
</svg>
